<svg xmlns="http://www.w3.org/2000/svg" viewBox="0 -0.5 32 32" shape-rendering="crispEdges">
<metadata>Made with Pixels to Svg https://codepen.io/shshaw/pen/XbxvNj</metadata>
<path stroke="#696773" d="M0 0h13M28 0h4M0 1h1M31 1h1M0 2h1M31 2h1M0 3h1M31 3h1M0 4h1M31 4h1M0 28h1M31 28h1M0 29h1M31 29h1M0 30h1M31 30h1M0 31h13M31 31h1" />
<path stroke="#6c6a76" d="M13 0h5M23 0h5M0 5h1M31 5h1M0 6h1M31 6h1M0 7h1M31 7h1M0 8h1M31 8h1M0 9h1M31 9h1M0 10h1M31 10h1M0 18h1M31 18h1M0 19h1M31 19h1M0 20h1M31 20h1M0 21h1M31 21h1M0 22h1M31 22h1M0 23h1M31 23h1M0 24h1M31 24h1M0 25h1M31 25h1M0 26h1M31 26h1M0 27h1M31 27h1M13 31h5M23 31h8" />
<path stroke="#706e79" d="M18 0h5M0 11h1M31 11h1M0 12h1M31 12h1M0 13h1M31 13h1M0 14h1M31 14h1M0 15h1M31 15h1M0 16h1M31 16h1M0 17h1M31 17h1M18 31h5" />
<path stroke="#d88038" d="M1 1h1M15 1h1M30 1h1M1 2h1M15 2h1M30 2h1M1 3h1M15 3h1M30 3h1M1 4h1M15 4h1M30 4h1M1 5h1M15 5h1M30 5h1M1 6h1M15 6h1M30 6h1M1 7h1M15 7h1M30 7h1M1 8h1M15 8h1M30 8h1M1 9h1M15 9h1M30 9h1M2 10h6M16 10h1" />
<path stroke="#e7924e" d="M2 1h13M17 1h13M2 2h13M17 2h13M2 3h13M17 3h13M2 4h13M17 4h13M2 5h13M17 5h13M2 6h13M17 6h13M2 7h13M17 7h13M2 8h13M17 8h13M2 9h13M17 9h13M22 13h1M26 13h2M21 14h3M26 14h2M21 15h3M26 15h2M20 16h1M22 16h1M24 16h1M26 16h2M22 17h1M22 18h1M26 18h2M22 19h1M26 19h2M4 23h8M4 24h8M4 25h8M4 26h8M4 27h8" />
<path stroke="#c96d21" d="M16 1h1M16 2h1M16 3h1M16 4h1M16 5h1M16 6h1M16 7h1M16 8h1M16 9h1M1 10h1M8 10h8M17 10h14" />
<path stroke="#b9641e" d="M1 11h1M30 11h1M1 12h1M30 12h1M1 13h1M30 13h1M1 14h1M30 14h1M1 15h1M30 15h1M1 16h1M30 16h1M1 17h1M30 17h1M1 18h1M30 18h1M1 19h1M30 19h1M1 20h1M30 20h1M1 21h1M30 21h1M1 22h1M30 22h1M1 23h1M30 23h1M1 24h1M30 24h1M1 25h1M30 25h1M1 26h1M30 26h1M1 27h1M30 27h1M1 28h1M30 28h1M1 29h1M30 29h1M1 30h30" />
<path stroke="#d17529" d="M2 11h28M2 12h28M2 13h20M23 13h3M28 13h2M2 14h19M24 14h2M28 14h2M2 15h19M24 15h2M28 15h2M2 16h18M21 16h1M23 16h1M25 16h1M28 16h2M2 17h20M23 17h7M2 18h20M23 18h3M28 18h2M2 19h20M23 19h3M28 19h2M2 20h28M2 21h28M2 22h28M2 23h2M12 23h18M2 24h2M12 24h18M2 25h2M12 25h18M2 26h2M12 26h18M2 27h2M12 27h18M2 28h28M2 29h28" />
</svg>