<svg xmlns="http://www.w3.org/2000/svg" viewBox="0 -0.5 32 32" shape-rendering="crispEdges">
<metadata>Made with Pixels to Svg https://codepen.io/shshaw/pen/XbxvNj</metadata>
<path stroke="#696773" d="M0 0h13M28 0h4M0 1h1M31 1h1M0 2h1M31 2h1M0 3h1M31 3h1M0 4h1M31 4h1M0 28h1M31 28h1M0 29h1M31 29h1M0 30h1M31 30h1M0 31h13M31 31h1" />
<path stroke="#6c6a76" d="M13 0h5M23 0h5M0 5h1M31 5h1M0 6h1M31 6h1M0 7h1M31 7h1M0 8h1M31 8h1M0 9h1M31 9h1M0 10h1M31 10h1M0 18h1M31 18h1M0 19h1M31 19h1M0 20h1M31 20h1M0 21h1M31 21h1M0 22h1M31 22h1M0 23h1M31 23h1M0 24h1M31 24h1M0 25h1M31 25h1M0 26h1M31 26h1M0 27h1M31 27h1M13 31h5M23 31h8" />
<path stroke="#706e79" d="M18 0h5M0 11h1M31 11h1M0 12h1M31 12h1M0 13h1M31 13h1M0 14h1M31 14h1M0 15h1M31 15h1M0 16h1M31 16h1M0 17h1M31 17h1M18 31h5" />
<path stroke="#d88038" d="M1 1h1M30 1h1M1 2h1M30 2h1M1 3h1M30 3h1M1 4h1M30 4h1M1 5h1M30 5h1M1 6h1M30 6h1M1 7h1M30 7h1M1 8h1M30 8h1M1 9h1M30 9h1M2 10h12M18 10h12" />
<path stroke="#e7924e" d="M2 1h12M18 1h12M2 2h12M18 2h8M29 2h1M2 3h12M18 3h8M29 3h1M2 4h12M18 4h8M29 4h1M2 5h12M18 5h8M29 5h1M2 6h12M18 6h12M2 7h12M18 7h12M2 8h12M18 8h12M2 9h12M18 9h12M22 13h1M26 13h2M21 14h3M26 14h2M21 15h3M26 15h2M20 16h1M22 16h1M24 16h1M26 16h2M22 17h1M22 18h1M26 18h2M22 19h1M26 19h2" />
<path stroke="#d9d9d9" d="M14 1h4M14 2h4M26 2h1M28 2h1M14 3h4M26 3h3M14 4h4M26 4h1M28 4h1M14 5h4M26 5h3M14 6h4M14 7h4M14 8h4M14 9h4" />
<path stroke="#7b7b7b" d="M27 2h1M27 4h1M5 24h3M9 25h2M6 26h2M9 26h1" />
<path stroke="#c96d21" d="M1 10h1M30 10h1" />
<path stroke="#bfbfbf" d="M14 10h4M4 23h8M4 24h1M8 24h4M4 25h5M11 25h1M4 26h2M8 26h1M10 26h2M4 27h8" />
<path stroke="#b9641e" d="M1 11h1M30 11h1M1 12h1M30 12h1M1 13h1M30 13h1M1 14h1M30 14h1M1 15h1M30 15h1M1 16h1M30 16h1M1 17h1M30 17h1M1 18h1M30 18h1M1 19h1M30 19h1M1 20h1M30 20h1M1 21h1M30 21h1M1 22h1M30 22h1M1 23h1M30 23h1M1 24h1M30 24h1M1 25h1M30 25h1M1 26h1M30 26h1M1 27h1M30 27h1M1 28h1M30 28h1M1 29h1M30 29h1M1 30h30" />
<path stroke="#d17529" d="M2 11h12M18 11h12M2 12h12M18 12h12M2 13h12M18 13h4M23 13h3M28 13h2M2 14h12M18 14h3M24 14h2M28 14h2M2 15h19M24 15h2M28 15h2M2 16h18M21 16h1M23 16h1M25 16h1M28 16h2M2 17h20M23 17h7M2 18h20M23 18h3M28 18h2M2 19h20M23 19h3M28 19h2M2 20h28M2 21h28M2 22h28M2 23h2M12 23h18M2 24h2M12 24h18M2 25h2M12 25h18M2 26h2M12 26h18M2 27h2M12 27h18M2 28h28M2 29h28" />
<path stroke="#a6a6a6" d="M14 11h4M14 12h4M14 13h4M14 14h4" />
</svg>