<svg xmlns="http://www.w3.org/2000/svg" viewBox="0 -0.5 32 32" shape-rendering="crispEdges">
<metadata>Made with Pixels to Svg https://codepen.io/shshaw/pen/XbxvNj</metadata>
<path stroke="#545261" d="M0 0h13M28 0h4M0 1h13M28 1h4M0 2h13M30 2h2M0 3h12M30 3h2M0 4h2M30 4h2M21 9h1M19 10h5M19 11h5M19 12h5M18 13h4M17 14h5M10 15h4M17 15h3M8 16h6M16 16h4M8 17h12M8 18h12M8 19h11M23 19h2M12 20h3M22 20h5M22 21h6M23 22h5M26 23h2M26 24h3M26 25h3M26 26h4M27 27h4M0 28h1M28 28h4M0 29h3M29 29h3M0 30h11M31 30h1M0 31h13M31 31h1" />
<path stroke="#575563" d="M13 0h5M23 0h5M13 1h6M22 1h6M13 2h5M22 2h8M12 3h5M23 3h7M2 4h14M25 4h5M0 5h16M27 5h5M0 6h17M20 6h5M27 6h5M0 7h25M27 7h5M0 8h11M14 8h18M0 9h9M14 9h7M22 9h10M0 10h7M14 10h5M24 10h8M2 11h4M14 11h5M24 11h7M3 12h2M12 12h7M24 12h3M7 13h11M22 13h6M6 14h11M22 14h7M5 15h5M14 15h3M20 15h10M3 16h5M14 16h2M20 16h10M1 17h7M20 17h10M0 18h8M20 18h12M0 19h8M19 19h4M25 19h7M0 20h12M15 20h7M27 20h5M0 21h22M28 21h4M0 22h23M28 22h4M0 23h5M10 23h16M28 23h4M0 24h5M11 24h15M29 24h3M0 25h6M20 25h6M29 25h3M0 26h7M20 26h6M30 26h2M0 27h12M21 27h6M31 27h1M1 28h15M21 28h7M3 29h15M21 29h8M11 30h8M22 30h9M13 31h5M23 31h8" />
<path stroke="#5b5966" d="M18 0h5M19 1h3M18 2h4M17 3h6M16 4h9M16 5h11M17 6h3M25 6h2M25 7h2M11 8h3M9 9h5M7 10h7M0 11h2M6 11h8M31 11h1M0 12h3M5 12h7M27 12h5M0 13h7M28 13h4M0 14h6M29 14h3M0 15h5M30 15h2M0 16h3M30 16h2M0 17h1M30 17h2M5 23h5M5 24h6M6 25h14M7 26h13M12 27h9M16 28h5M18 29h3M19 30h3M18 31h5" />
</svg>