<svg xmlns="http://www.w3.org/2000/svg" viewBox="0 -0.5 32 32" shape-rendering="crispEdges">
<metadata>Made with Pixels to Svg https://codepen.io/shshaw/pen/XbxvNj</metadata>
<path stroke="#696773" d="M0 0h6M7 0h6M28 0h4M0 1h6M8 1h3M28 1h4M0 2h5M8 2h2M30 2h2M0 3h3M30 3h2M0 4h2M30 4h2M8 17h1M8 18h2M8 19h1M23 19h2M23 20h4M24 21h4M24 22h4M26 23h1M29 26h1M29 27h2M0 28h1M29 28h3M0 29h3M29 29h3M0 30h6M9 30h2M31 30h1M0 31h7M8 31h3M31 31h1" />
<path stroke="#6c6a76" d="M6 0h1M13 0h1M23 0h5M6 1h2M22 1h6M5 2h3M22 2h8M8 3h1M23 3h1M29 3h1M2 4h1M8 4h1M29 4h1M0 5h3M6 5h2M29 5h3M0 6h3M5 6h3M24 6h1M29 6h3M0 7h3M5 7h3M24 7h1M29 7h3M0 8h8M24 8h8M0 9h7M25 9h7M0 10h7M25 10h7M2 11h6M24 11h7M3 12h5M24 12h3M4 13h3M25 13h3M5 14h2M25 14h2M5 15h3M24 15h3M29 15h1M5 16h3M24 16h3M29 16h1M1 17h2M5 17h3M23 17h4M29 17h1M0 18h8M22 18h10M0 19h8M25 19h7M0 20h9M27 20h5M0 21h8M28 21h4M0 22h8M28 22h4M0 23h5M25 23h1M27 23h5M0 24h3M25 24h2M29 24h3M0 25h3M5 25h1M25 25h2M29 25h3M0 26h3M6 26h1M24 26h2M30 26h2M0 27h3M8 27h3M21 27h3M31 27h1M1 28h2M8 28h3M21 28h3M3 29h8M21 29h8M6 30h3M22 30h9M7 31h1M23 31h8" />
<path stroke="#594306" d="M14 0h4M11 1h3M18 1h3M10 2h1M13 2h1M18 2h1M21 2h1M9 3h1M13 3h1M18 3h1M22 3h1M9 4h1M13 4h1M18 4h1M22 4h1M8 5h1M13 5h1M18 5h1M23 5h1M8 6h1M13 6h6M23 6h1M8 7h1M23 7h1M8 8h1M23 8h1M7 9h1M9 9h2M21 9h2M24 9h1M7 10h1M11 10h3M18 10h3M24 10h1M8 11h1M23 11h1M9 12h1M22 12h1M10 13h12" />
<path stroke="#706e79" d="M18 0h5M21 1h1M23 4h1M24 5h2M25 6h2M25 7h2M0 11h2M31 11h1M0 12h3M27 12h5M0 13h4M28 13h4M0 14h3M29 14h3M0 15h3M30 15h2M0 16h3M30 16h2M0 17h1M30 17h2M5 23h2M5 24h2M6 25h1M7 26h1M21 30h1M21 31h2" />
<path stroke="#f2c259" d="M14 1h4M11 2h2M14 2h1M19 2h2M10 3h1M12 3h1M19 3h1M21 3h1M10 4h1M12 4h1M19 4h1M21 4h1M9 5h1M22 5h1M9 6h1M22 6h1M9 7h1M22 7h1" />
<path stroke="#e3b245" d="M15 2h3M11 3h1M14 3h4M20 3h1M11 4h1M14 4h3M20 4h1M10 5h3M14 5h1M19 5h3M10 6h3M19 6h3M10 7h4M18 7h4M9 8h14M14 9h4M15 10h2M12 11h8M14 12h4" />
<path stroke="#e3c145" d="M3 3h5M24 3h5M3 4h5M24 4h5M3 5h3M26 5h3M3 6h2M27 6h2M3 7h2M27 7h2M3 14h2M27 14h2M3 15h2M27 15h2M3 16h2M27 16h2M3 17h2M27 17h2M3 24h2M27 24h2M3 25h2M27 25h2M3 26h3M26 26h3M3 27h5M24 27h5M3 28h5M24 28h5" />
<path stroke="#c79831" d="M17 4h1M15 5h3M14 7h4M8 9h1M11 9h3M18 9h3M23 9h1M8 10h3M14 10h1M17 10h1M21 10h3M9 11h3M20 11h3M10 12h4M18 12h4" />
<path stroke="#4b3819" d="M8 12h1M23 12h1M7 13h1M24 13h1M7 14h1M24 14h1M8 15h1M23 15h1M8 16h1M23 16h1M9 17h1M22 17h1M10 18h2M20 18h2M12 19h8M7 23h1M9 23h1M22 23h1M24 23h1M7 24h1M10 24h1M21 24h1M24 24h1M7 25h1M10 25h1M21 25h1M24 25h1M8 26h3M21 26h3" />
<path stroke="#ae894b" d="M8 13h1M23 13h1M10 14h1M21 14h1M8 23h1M23 23h1M9 24h1M22 24h1" />
<path stroke="#c9a261" d="M9 13h1M22 13h1M11 14h1M14 14h4M20 14h1M9 16h1M22 16h1M10 17h1M21 17h1M8 24h1M23 24h1" />
<path stroke="#f0c072" d="M8 14h1M23 14h1M9 15h2M21 15h2M10 16h1M21 16h1M11 17h1M20 17h1M12 18h1M19 18h1M9 25h1M22 25h1" />
<path stroke="#efd3a5" d="M9 14h1M22 14h1M11 15h1M14 15h4M20 15h1M11 16h1M14 16h4M20 16h1M12 17h8M13 18h6M8 25h1M23 25h1" />
<path stroke="#ffffff" d="M12 14h1M19 14h1M12 15h1M19 15h1M12 16h1M19 16h1M13 23h2M17 23h2M12 25h3M17 25h3" />
<path stroke="#41516b" d="M13 14h1M18 14h1M13 15h1M18 15h1M13 16h1M18 16h1" />
<path stroke="#333333" d="M9 19h1M22 19h1M9 20h1M22 20h1M8 21h1M10 21h1M21 21h1M23 21h1M8 22h1M11 22h1M20 22h1M23 22h1M11 23h1M20 23h1" />
<path stroke="#d88038" d="M10 19h1M21 19h1M10 20h1M12 20h1M19 20h1M21 20h1M11 21h1M13 21h1M18 21h1M20 21h1M13 22h2M17 22h2M12 23h1M19 23h1M12 24h1M14 24h1M17 24h1M19 24h1" />
<path stroke="#d86738" d="M11 19h1M20 19h1M14 20h1M17 20h1M11 25h1M20 25h1" />
<path stroke="#d86f38" d="M11 20h1M13 20h1M18 20h1M20 20h1M12 21h1M19 21h1M12 22h1M19 22h1M11 24h1M13 24h1M18 24h1M20 24h1" />
<path stroke="#a64821" d="M15 20h1M14 21h3M15 22h1M15 23h1M15 24h1M15 25h1" />
<path stroke="#c45527" d="M16 20h1M17 21h1M16 22h1M16 23h1M16 24h1M16 25h1" />
<path stroke="#a4a4a4" d="M9 21h1M22 21h1" />
<path stroke="#818181" d="M9 22h1M22 22h1" />
<path stroke="#6e6e6e" d="M10 22h1M21 22h1" />
<path stroke="#595959" d="M10 23h1M21 23h1" />
<path stroke="#633209" d="M11 26h4M17 26h4" />
<path stroke="#7e7e7e" d="M15 26h1" />
<path stroke="#9e9e9e" d="M16 26h1" />
<path stroke="#0d1033" d="M11 27h1M20 27h1M11 28h1M20 28h1M11 29h1M20 29h1" />
<path stroke="#4f5596" d="M12 27h1M19 27h1M13 28h1M18 28h1" />
<path stroke="#434986" d="M13 27h1M18 27h1M14 28h1M17 28h1M14 29h1M17 29h1" />
<path stroke="#242963" d="M14 27h2M15 28h1M15 29h1" />
<path stroke="#2d3376" d="M16 27h2M16 28h1M16 29h1" />
<path stroke="#5a60a1" d="M12 28h1M19 28h1M12 29h2M18 29h2" />
<path stroke="#592c08" d="M11 30h1M15 30h1M20 30h1M11 31h2M14 31h4M19 31h2" />
<path stroke="#663610" d="M12 30h3M16 30h1M13 31h1" />
<path stroke="#6e3b12" d="M17 30h3M18 31h1" />
</svg>