<svg xmlns="http://www.w3.org/2000/svg" viewBox="0 -0.5 32 32" shape-rendering="crispEdges">
<metadata>Made with Pixels to Svg https://codepen.io/shshaw/pen/XbxvNj</metadata>
<path stroke="#696773" d="M0 0h6M7 0h6M28 0h4M0 1h6M8 1h5M28 1h4M0 2h5M8 2h5M30 2h2M0 3h3M9 3h3M30 3h2M0 4h2M30 4h2M21 9h1M19 10h5M19 11h5M19 12h5M18 13h4M20 14h2M10 15h4M8 16h6M8 17h8M8 18h8M8 19h9M23 19h2M12 20h3M22 20h5M22 21h6M23 22h5M26 23h1M29 26h1M29 27h2M0 28h1M29 28h3M0 29h3M29 29h3M0 30h6M9 30h2M31 30h1M0 31h7M8 31h5M31 31h1" />
<path stroke="#6c6a76" d="M6 0h1M13 0h5M23 0h5M6 1h2M13 1h6M22 1h6M5 2h3M13 2h5M22 2h8M8 3h1M12 3h2M23 3h1M29 3h1M2 4h1M8 4h6M29 4h1M0 5h3M6 5h10M29 5h3M0 6h3M5 6h12M20 6h5M29 6h3M0 7h3M5 7h20M29 7h3M0 8h11M14 8h18M0 9h9M14 9h7M22 9h10M0 10h8M14 10h5M24 10h8M2 11h6M14 11h5M24 11h7M3 12h7M12 12h7M24 12h3M4 13h14M22 13h6M5 14h15M22 14h5M5 15h5M14 15h3M19 15h8M29 15h1M5 16h3M14 16h3M20 16h7M29 16h1M1 17h2M5 17h3M16 17h1M21 17h6M29 17h1M0 18h8M16 18h3M21 18h11M0 19h8M17 19h6M25 19h7M0 20h12M15 20h7M27 20h5M0 21h22M28 21h4M0 22h23M28 22h4M0 23h5M10 23h16M27 23h5M0 24h3M11 24h16M29 24h3M0 25h3M5 25h1M14 25h13M29 25h3M0 26h3M6 26h1M15 26h11M30 26h2M0 27h3M8 27h4M21 27h3M31 27h1M1 28h2M8 28h6M21 28h3M3 29h15M21 29h8M6 30h3M11 30h8M22 30h9M7 31h1M13 31h5M23 31h8" />
<path stroke="#706e79" d="M18 0h5M19 1h3M18 2h4M18 3h5M18 4h6M16 5h10M17 6h3M25 6h2M25 7h2M11 8h3M9 9h5M8 10h6M0 11h2M8 11h6M31 11h1M0 12h3M10 12h2M27 12h5M0 13h4M28 13h4M0 14h3M29 14h3M0 15h3M17 15h2M30 15h2M0 16h3M17 16h3M30 16h2M0 17h1M17 17h4M30 17h2M19 18h2M5 23h5M5 24h6M6 25h8M7 26h8M12 27h2M18 27h3M18 28h3M18 29h3M19 30h3M18 31h5" />
<path stroke="#e3c145" d="M3 3h5M14 3h4M24 3h5M3 4h5M14 4h4M24 4h5M3 5h3M26 5h3M3 6h2M27 6h2M3 7h2M27 7h2M3 14h2M27 14h2M3 15h2M27 15h2M3 16h2M27 16h2M3 17h2M27 17h2M3 24h2M27 24h2M3 25h2M27 25h2M3 26h3M26 26h3M3 27h5M14 27h4M24 27h5M3 28h5M14 28h4M24 28h5" />
</svg>