<svg xmlns="http://www.w3.org/2000/svg" viewBox="0 -0.5 32 32" shape-rendering="crispEdges">
<metadata>Made with Pixels to Svg https://codepen.io/shshaw/pen/XbxvNj</metadata>
<path stroke="#b76639" d="M0 0h4M7 0h4M13 0h2M16 0h1M22 0h4M29 0h2M7 1h1M13 1h2M17 1h1M28 1h1M0 4h2M3 4h2M11 4h2M14 4h1M17 4h4M23 4h2M26 4h2M29 4h3M3 5h1M17 5h1M24 5h1M26 5h2M0 8h2M4 8h2M8 8h4M15 8h3M23 8h3M27 8h4M2 9h2M7 9h1M11 9h1M15 9h1M29 9h1M0 12h1M4 12h3M10 12h2M13 12h3M18 12h3M24 12h2M29 12h3M1 13h1M4 13h1M8 13h1M10 13h1M13 13h1M16 13h1M18 13h1M20 13h3M25 13h2M30 13h1M0 16h3M4 16h1M8 16h3M13 16h1M16 16h3M26 16h2M2 17h1M4 17h2M7 17h1M11 17h2M15 17h2M20 17h2M24 17h2M29 17h1M0 20h3M4 20h1M7 20h2M15 20h2M20 20h2M23 20h2M27 20h3M4 21h2M10 21h1M12 21h4M19 21h2M22 21h1M24 21h2M27 21h1M30 21h2M31 22h1M1 24h4M8 24h1M11 24h2M14 24h3M21 24h4M26 24h1M29 24h2M0 25h1M2 25h1M4 25h1M7 25h1M12 25h1M14 25h1M18 25h1M22 25h1M26 25h2M30 25h1M0 28h1M4 28h6M12 28h1M14 28h3M18 28h2M21 28h2M24 28h4M29 28h1M31 28h1M3 29h2M7 29h1M10 29h1M15 29h1M22 29h1M24 29h1M28 29h1M31 29h1" />
<path stroke="#b25f32" d="M4 0h2M11 0h2M17 0h3M21 0h1M26 0h1M28 0h1M31 0h1M0 1h4M5 1h1M8 1h2M12 1h1M16 1h1M18 1h1M22 1h2M29 1h3M0 2h1M2 2h1M5 2h1M7 2h1M10 2h2M13 2h2M17 2h2M21 2h1M23 2h1M25 2h2M28 2h1M5 4h3M10 4h1M13 4h1M15 4h1M21 4h2M28 4h1M0 5h2M4 5h1M7 5h1M10 5h1M12 5h3M18 5h2M22 5h2M28 5h2M3 6h1M7 6h2M10 6h2M14 6h2M17 6h1M20 6h2M23 6h2M26 6h2M31 6h1M2 8h2M7 8h1M12 8h1M14 8h1M18 8h2M22 8h1M26 8h1M4 9h2M8 9h1M12 9h1M14 9h1M16 9h2M19 9h1M23 9h2M26 9h3M1 10h3M5 10h1M7 10h1M10 10h2M14 10h2M17 10h1M22 10h1M24 10h2M1 12h1M3 12h1M7 12h2M12 12h1M16 12h1M21 12h3M26 12h1M0 13h1M3 13h1M5 13h1M7 13h1M11 13h2M15 13h1M19 13h1M24 13h1M29 13h1M31 13h1M0 14h2M4 14h1M6 14h1M8 14h1M10 14h1M13 14h2M21 14h1M23 14h2M26 14h1M3 16h1M5 16h1M7 16h1M11 16h2M15 16h1M19 16h4M24 16h2M29 16h2M0 17h2M3 17h1M8 17h1M10 17h1M13 17h1M17 17h1M26 17h3M1 18h1M4 18h1M7 18h1M9 18h1M12 18h1M15 18h2M19 18h2M24 18h3M28 18h1M5 20h2M9 20h2M12 20h3M19 20h1M22 20h1M25 20h1M30 20h2M0 21h2M6 21h1M8 21h2M17 21h1M21 21h1M28 21h2M2 22h1M7 22h1M9 22h1M12 22h1M14 22h1M17 22h1M19 22h2M23 22h1M25 22h1M27 22h1M29 22h1M0 24h1M5 24h1M7 24h1M9 24h2M13 24h1M17 24h3M25 24h1M27 24h2M1 25h1M3 25h1M5 25h1M8 25h1M10 25h2M13 25h1M15 25h1M17 25h1M21 25h1M23 25h3M29 25h1M0 26h6M7 26h1M11 26h2M16 26h1M18 26h1M22 26h1M25 26h1M28 26h1M30 26h1M1 28h1M3 28h1M10 28h2M17 28h1M20 28h1M28 28h1M30 28h1M0 29h1M5 29h1M8 29h2M11 29h1M14 29h1M16 29h2M19 29h3M25 29h3M29 29h1M3 30h2M6 30h2M12 30h1M14 30h2M21 30h2M24 30h2M28 30h1M30 30h1" />
<path stroke="#9a8a7d" d="M6 0h1M15 0h1M20 0h1M27 0h1M6 1h1M15 1h1M20 1h1M27 1h1M15 2h1M20 2h1M0 3h2M3 3h2M6 3h1M8 3h1M10 3h1M15 3h5M21 3h3M26 3h1M31 3h1M16 4h1M2 5h1M9 5h1M16 5h1M25 5h1M2 6h1M9 6h1M0 7h3M4 7h1M7 7h1M9 7h6M17 7h3M22 7h3M13 8h1M21 8h1M31 8h1M6 9h1M13 9h1M21 9h1M31 9h1M6 10h1M13 10h1M31 10h1M0 11h2M3 11h2M6 11h1M12 11h5M20 11h2M23 11h1M29 11h3M2 12h1M9 12h1M2 13h1M9 13h1M17 13h1M28 13h1M2 14h1M9 14h1M28 14h1M0 15h4M7 15h3M14 15h2M18 15h14M14 16h1M23 16h1M31 16h1M6 17h1M14 17h1M23 17h1M31 17h1M6 18h1M14 18h1M23 18h1M31 18h1M0 19h3M5 19h4M13 19h5M22 19h3M28 19h1M30 19h2M11 20h1M26 21h1M18 22h1M26 22h1M0 23h1M2 23h4M7 23h4M12 23h2M16 23h1M20 23h10M6 24h1M20 24h1M20 25h1M31 26h1M0 27h3M8 27h10M23 27h1M25 27h5M31 27h1M2 28h1M13 28h1M23 28h1M2 29h1M23 29h1M2 30h1M0 31h2M3 31h3M7 31h1M14 31h3M18 31h3M24 31h1M26 31h3M30 31h2" />
<path stroke="#a9572a" d="M4 1h1M10 1h2M19 1h1M21 1h1M24 1h1M26 1h1M1 2h1M3 2h2M8 2h2M12 2h1M16 2h1M19 2h1M22 2h1M24 2h1M29 2h3M8 4h1M6 5h1M8 5h1M11 5h1M15 5h1M21 5h1M31 5h1M0 6h2M4 6h3M12 6h2M18 6h2M22 6h1M28 6h3M20 8h1M0 9h2M10 9h1M18 9h1M20 9h1M22 9h1M25 9h1M30 9h1M0 10h1M4 10h1M8 10h2M12 10h1M16 10h1M18 10h3M23 10h1M26 10h5M27 12h1M23 13h1M3 14h1M5 14h1M7 14h1M11 14h2M15 14h2M18 14h3M22 14h1M25 14h1M27 14h1M29 14h3M28 16h1M9 17h1M19 17h1M22 17h1M30 17h1M0 18h1M2 18h1M5 18h1M8 18h1M10 18h2M13 18h1M17 18h2M21 18h2M27 18h1M30 18h1M17 20h1M2 21h1M16 21h1M0 22h2M4 22h3M8 22h1M10 22h1M13 22h1M15 22h1M21 22h2M24 22h1M28 22h1M9 25h1M16 25h1M19 25h1M28 25h1M8 26h1M10 26h1M13 26h2M17 26h1M19 26h1M21 26h1M23 26h2M26 26h1M29 26h1M1 29h1M12 29h1M18 29h1M30 29h1M0 30h1M5 30h1M8 30h1M10 30h2M16 30h3M20 30h1M26 30h1M29 30h1M31 30h1" />
<path stroke="#9a4d23" d="M25 1h1M5 5h1M20 5h1M30 5h1M9 9h1M6 13h1M14 13h1M27 13h1M18 17h1M3 18h1M29 18h1M7 21h1M23 21h1M16 22h1M30 22h1M9 26h1M15 26h1M27 26h1M6 29h1M1 30h1M9 30h1M19 30h1M27 30h1" />
<path stroke="#8c7d6e" d="M6 2h1M27 2h1M2 3h1M5 3h1M9 3h1M11 3h4M24 3h2M27 3h4M2 4h1M9 4h1M25 4h1M16 6h1M25 6h1M3 7h1M5 7h2M8 7h1M15 7h2M20 7h2M26 7h6M6 8h1M21 10h1M7 11h5M17 11h3M22 11h1M24 11h5M17 12h1M28 12h1M17 14h1M4 15h3M10 15h2M13 15h1M16 15h2M6 16h1M3 19h2M9 19h4M18 19h4M25 19h3M29 19h1M3 20h1M18 20h1M26 20h1M3 21h1M11 21h1M18 21h1M3 22h1M11 22h1M11 23h1M17 23h3M30 23h2M31 24h1M6 25h1M31 25h1M6 26h1M20 26h1M3 27h5M18 27h5M13 29h1M13 30h1M23 30h1M6 31h1M8 31h6M21 31h3" />
<path stroke="#a79b91" d="M7 3h1M20 3h1M25 7h1M2 11h1M5 11h1M12 15h1M1 23h1M6 23h1M14 23h2M24 27h1M30 27h1M2 31h1M17 31h1M25 31h1M29 31h1" />
</svg>